<?xml version="1.0" encoding="utf-8"?>
<!-- Generator: Adobe Illustrator 16.0.0, SVG Export Plug-In . SVG Version: 6.00 Build 0)  -->
<!DOCTYPE svg PUBLIC "-//W3C//DTD SVG 1.1//EN" "http://www.w3.org/Graphics/SVG/1.1/DTD/svg11.dtd">
<svg version="1.1" id="Livello_1" xmlns="http://www.w3.org/2000/svg" xmlns:xlink="http://www.w3.org/1999/xlink" x="0px" y="0px"
	 preserveAspectRatio="xMinYMin meet" viewBox="0 0 100 20" enable-background="new 0 0 100 20" xml:space="preserve">
<path fill="#2D211C" d="M68.052,17.992c0.027,0.018,0.054,0.031,0.081,0.049c-0.006-0.008-0.021-0.01-0.027-0.014
	c1.853,1.174,4.02,1.82,6.109,1.82c2.092,0,3.984-0.625,5.333-1.766c1.302-1.107,1.954-2.814,1.954-5.074
	c0-3.365-2.483-4.527-4.645-5.167l-1.238-0.371C74.8,7.203,73.57,6.804,73.57,5.81c0-0.801,0.77-1.249,1.478-1.394
	c0.172-0.031,0.329-0.043,0.476-0.043c0.626,0,1.266,0.144,1.872,0.416c0.177,0.082,0.356,0.176,0.528,0.279l0.31,0.154
	c0.302,0.155,0.648,0.062,0.854-0.223c0.198-0.289,1.39-2.713,1.39-2.713c0.164-0.318,0.041-0.716-0.283-0.884
	c-1.589-0.788-3.639-1.281-5.366-1.281c-1.914,0-3.543,0.654-4.691,1.779c-1.137,1.119-1.804,2.691-1.804,4.548
	c0,3.625,2.017,4.465,5.092,5.339l0.156,0.042c1.006,0.289,2.69,0.76,2.69,1.972c0,1.21-1.115,1.75-2.221,1.75
	c-0.38,0-0.758-0.047-1.138-0.137c-0.011-0.006-0.025-0.006-0.038-0.016c-0.951-0.275-1.728-0.708-2.396-1.054l-0.296-0.161
	c-0.303-0.167-0.653-0.075-0.859,0.202c-0.027,0.037-0.068,0.1-0.117,0.189c-0.371,0.638-1.326,2.493-1.326,2.493
	c-0.016,0.014-0.022,0.027-0.022,0.045l-0.021,0.035C67.686,17.445,67.782,17.806,68.052,17.992z"/>
<path fill="#2D211C" d="M54.145,19.849c1.528,0.008,4.37-0.256,6.228-2.07c1.829-1.773,1.988-4.042,1.994-6.612l0.028-9.864
	c0-0.371-0.296-0.667-0.66-0.667l-3.708-0.013c-0.363,0-0.667,0.296-0.667,0.661l-0.021,9.207c-0.016,2.597-0.262,4.926-3.18,4.915
	c-2.917-0.01-3.151-2.338-3.145-4.936l0.034-9.201c0-0.362-0.296-0.665-0.668-0.665l-3.708-0.015c-0.363,0-0.668,0.299-0.668,0.669
	l-0.026,9.861c-0.008,2.568,0.131,4.837,1.954,6.624C49.783,19.568,52.617,19.843,54.145,19.849z"/>
<path fill="#2D211C" d="M31.824,19.97c3.194,0,5.759-1.27,7.424-3.678c0.97-1.417,1.424-2.848,1.637-4.326
	c0.096-0.657,0.139-1.319,0.165-2V9.458c0-0.366-0.28-0.665-0.632-0.665H40.15h-2.457h-5.091h-0.268
	c-0.351,0-0.641,0.299-0.641,0.665v2.675c0,0.371,0.29,0.664,0.641,0.664h1.072h1.728c0.276,0,0.44,0.094,0.502,0.248
	c0.076,0.201-0.247,0.832-0.275,0.896c-0.537,1.175-1.919,1.857-3.509,1.857c-3.014,0-4.589-2.861-4.589-5.691
	c0-2.784,1.533-5.734,4.478-5.734c1.535,0,2.813,0.848,3.599,2.329v0.004c0.172,0.321,0.502,0.515,0.854,0.39l3.331-1.472
	c0.316-0.137,0.48-0.509,0.364-0.836c-0.013-0.025-0.021-0.045-0.034-0.069c-0.166-0.335-0.352-0.648-0.545-0.947
	c-0.019-0.026-0.041-0.052-0.053-0.082C37.641,1.273,35.169,0.003,32.004,0h-0.031c-5.824,0.008-9.733,4.059-9.733,10.086
	C22.24,15.904,26.183,19.97,31.824,19.97z"/>
<path fill="#2D211C" d="M19.804,18.976L13.111,0.998c-0.077-0.217-0.325-0.385-0.551-0.385h-2.056h-0.53H9.45H8.3
	c-0.22,0-0.468,0.167-0.55,0.385L1.049,18.976c-0.069,0.211,0.047,0.385,0.268,0.385h4.37c0.22,0,0.467-0.174,0.543-0.377
	l0.948-2.457c0.084-0.213,0.331-0.385,0.558-0.385h5.389c0.228,0,0.475,0.172,0.557,0.385l0.943,2.457
	c0.082,0.203,0.329,0.377,0.557,0.377h4.355C19.762,19.361,19.886,19.187,19.804,18.976z M11.76,12.229H9.002
	c-0.22,0-0.352-0.167-0.282-0.383L10.24,7.11c0.077-0.211,0.193-0.211,0.263-0.003l1.54,4.739
	C12.119,12.062,11.988,12.229,11.76,12.229z"/>
<path fill="#2D211C" d="M98.125,0.613H86.448c-0.365,0-0.66,0.299-0.66,0.667v2.966c0,0.366,0.296,0.668,0.66,0.668h2.657
	c0.365,0,0.66,0.296,0.66,0.664v13.12c0,0.365,0.297,0.662,0.659,0.662h3.719c0.362,0,0.666-0.297,0.666-0.662V5.577
	c0-0.368,0.296-0.664,0.66-0.664h2.655c0.365,0,0.653-0.302,0.653-0.668V1.279C98.778,0.912,98.49,0.613,98.125,0.613z"/>
</svg>
